<svg xmlns="http://www.w3.org/2000/svg" viewBox="0 0 1240 560" width="1240" height="560"><defs><marker id="_arrow_neutral_0" viewBox="0 0 10 10" refX="9" refY="5" markerWidth="7" markerHeight="7" orient="auto-start-reverse"><path d="M 0 0 L 10 5 L 0 10 z" fill="#4A4A4A"/></marker></defs><rect x="0" y="0" width="1240" height="560" fill="#FFFFFF"/><text x="620.0" y="36" font-family="Overpass, Red Hat Text, Arial, sans-serif" font-size="22" font-weight="bold" fill="#4A4A4A" text-anchor="middle">Raw manifests versus one chart</text><text x="620.0" y="64" font-family="Overpass, Red Hat Text, Arial, sans-serif" font-size="14" font-weight="normal" fill="#5A5A5A" text-anchor="middle">Three environments: nine files to keep in step, or one template and three small override files</text><rect x="40" y="110" width="560" height="400" rx="8" ry="8" fill="#F4F4F4" stroke="#D2D2D2" stroke-width="1"/><text x="320" y="140" font-family="Overpass, Red Hat Text, Arial, sans-serif" font-size="15" font-weight="bold" fill="#B71C1C" text-anchor="middle">Raw manifests</text><rect x="70" y="175" width="160" height="40" rx="8" ry="8" fill="#FFFFFF" stroke="#B71C1C" stroke-width="1.6"/><text x="150.0" y="200.0" font-family="Red Hat Mono, Menlo, monospace" font-size="14" font-weight="600" fill="#4A4A4A" text-anchor="middle">dev/</text><rect x="70" y="235" width="160" height="40" rx="8" ry="8" fill="#FFFFFF" stroke="#4A4A4A" stroke-width="1.6"/><text x="150.0" y="260.0" font-family="Red Hat Mono, Menlo, monospace" font-size="14" font-weight="600" fill="#4A4A4A" text-anchor="middle">configmap.yaml</text><rect x="70" y="287" width="160" height="40" rx="8" ry="8" fill="#FFFFFF" stroke="#4A4A4A" stroke-width="1.6"/><text x="150.0" y="312.0" font-family="Red Hat Mono, Menlo, monospace" font-size="14" font-weight="600" fill="#4A4A4A" text-anchor="middle">deployment.yaml</text><rect x="70" y="339" width="160" height="40" rx="8" ry="8" fill="#FFFFFF" stroke="#4A4A4A" stroke-width="1.6"/><text x="150.0" y="364.0" font-family="Red Hat Mono, Menlo, monospace" font-size="14" font-weight="600" fill="#4A4A4A" text-anchor="middle">service.yaml</text><rect x="245" y="175" width="160" height="40" rx="8" ry="8" fill="#FFFFFF" stroke="#B71C1C" stroke-width="1.6"/><text x="325.0" y="200.0" font-family="Red Hat Mono, Menlo, monospace" font-size="14" font-weight="600" fill="#4A4A4A" text-anchor="middle">stage/</text><rect x="245" y="235" width="160" height="40" rx="8" ry="8" fill="#FFFFFF" stroke="#4A4A4A" stroke-width="1.6"/><text x="325.0" y="260.0" font-family="Red Hat Mono, Menlo, monospace" font-size="14" font-weight="600" fill="#4A4A4A" text-anchor="middle">configmap.yaml</text><rect x="245" y="287" width="160" height="40" rx="8" ry="8" fill="#FFFFFF" stroke="#4A4A4A" stroke-width="1.6"/><text x="325.0" y="312.0" font-family="Red Hat Mono, Menlo, monospace" font-size="14" font-weight="600" fill="#4A4A4A" text-anchor="middle">deployment.yaml</text><rect x="245" y="339" width="160" height="40" rx="8" ry="8" fill="#FFFFFF" stroke="#4A4A4A" stroke-width="1.6"/><text x="325.0" y="364.0" font-family="Red Hat Mono, Menlo, monospace" font-size="14" font-weight="600" fill="#4A4A4A" text-anchor="middle">service.yaml</text><rect x="420" y="175" width="160" height="40" rx="8" ry="8" fill="#FFFFFF" stroke="#B71C1C" stroke-width="1.6"/><text x="500.0" y="200.0" font-family="Red Hat Mono, Menlo, monospace" font-size="14" font-weight="600" fill="#4A4A4A" text-anchor="middle">prod/</text><rect x="420" y="235" width="160" height="40" rx="8" ry="8" fill="#FFFFFF" stroke="#4A4A4A" stroke-width="1.6"/><text x="500.0" y="260.0" font-family="Red Hat Mono, Menlo, monospace" font-size="14" font-weight="600" fill="#4A4A4A" text-anchor="middle">configmap.yaml</text><rect x="420" y="287" width="160" height="40" rx="8" ry="8" fill="#FFFFFF" stroke="#4A4A4A" stroke-width="1.6"/><text x="500.0" y="312.0" font-family="Red Hat Mono, Menlo, monospace" font-size="14" font-weight="600" fill="#4A4A4A" text-anchor="middle">deployment.yaml</text><rect x="420" y="339" width="160" height="40" rx="8" ry="8" fill="#FFFFFF" stroke="#4A4A4A" stroke-width="1.6"/><text x="500.0" y="364.0" font-family="Red Hat Mono, Menlo, monospace" font-size="14" font-weight="600" fill="#4A4A4A" text-anchor="middle">service.yaml</text><text x="320" y="440" font-family="Overpass, Red Hat Text, Arial, sans-serif" font-size="13" font-weight="normal" fill="#4A4A4A" text-anchor="middle">9 files, copied and edited per environment</text><text x="320" y="464" font-family="Overpass, Red Hat Text, Arial, sans-serif" font-size="13" font-weight="normal" fill="#4A4A4A" text-anchor="middle">A fix in one file must be repeated in two more</text><rect x="640" y="110" width="560" height="400" rx="8" ry="8" fill="#F4F4F4" stroke="#D2D2D2" stroke-width="1"/><text x="920" y="140" font-family="Overpass, Red Hat Text, Arial, sans-serif" font-size="15" font-weight="bold" fill="#006E6E" text-anchor="middle">One chart</text><rect x="670" y="175" width="500" height="100" rx="8" ry="8" fill="#FFFFFF" stroke="#EE0000" stroke-width="1.6"/><text x="920.0" y="199" font-family="Red Hat Mono, Menlo, monospace" font-size="14" font-weight="600" fill="#4A4A4A" text-anchor="middle">shipping-service/</text><text x="920.0" y="219" font-family="Red Hat Text, Arial, sans-serif" font-size="12" fill="#5A5A5A" text-anchor="middle">Chart.yaml  values.yaml</text><text x="920.0" y="235" font-family="Red Hat Text, Arial, sans-serif" font-size="12" fill="#5A5A5A" text-anchor="middle">templates/ configmap, deployment, service</text><rect x="670" y="335" width="160" height="44" rx="8" ry="8" fill="#FFFFFF" stroke="#B36B00" stroke-width="1.6"/><text x="750.0" y="362.0" font-family="Red Hat Mono, Menlo, monospace" font-size="14" font-weight="600" fill="#4A4A4A" text-anchor="middle">values-dev.yaml</text><line x1="750" y1="335" x2="920" y2="275" stroke="#4A4A4A" stroke-width="1.6" marker-end="url(#_arrow_neutral_0)"/><rect x="840" y="335" width="160" height="44" rx="8" ry="8" fill="#FFFFFF" stroke="#B36B00" stroke-width="1.6"/><text x="920.0" y="362.0" font-family="Red Hat Mono, Menlo, monospace" font-size="14" font-weight="600" fill="#4A4A4A" text-anchor="middle">values-stage.yaml</text><line x1="920" y1="335" x2="920" y2="275" stroke="#4A4A4A" stroke-width="1.6" marker-end="url(#_arrow_neutral_0)"/><rect x="1010" y="335" width="160" height="44" rx="8" ry="8" fill="#FFFFFF" stroke="#B36B00" stroke-width="1.6"/><text x="1090.0" y="362.0" font-family="Red Hat Mono, Menlo, monospace" font-size="14" font-weight="600" fill="#4A4A4A" text-anchor="middle">values-prod.yaml</text><line x1="1090" y1="335" x2="920" y2="275" stroke="#4A4A4A" stroke-width="1.6" marker-end="url(#_arrow_neutral_0)"/><text x="920" y="440" font-family="Overpass, Red Hat Text, Arial, sans-serif" font-size="13" font-weight="normal" fill="#4A4A4A" text-anchor="middle">3 override files hold only the differences</text><text x="920" y="464" font-family="Red Hat Mono, Menlo, monospace" font-size="13" font-weight="normal" fill="#4A4A4A" text-anchor="middle">helm install -f values-prod.yaml</text></svg>