<svg xmlns="http://www.w3.org/2000/svg" viewBox="0 0 980 380" font-family="'Red Hat Text', system-ui, sans-serif" role="img">
<defs><marker id="a" viewBox="0 0 10 10" refX="8.5" refY="5" markerWidth="9" markerHeight="9" orient="auto-start-reverse"><path d="M0,0 L10,5 L0,10 z" fill="#555"/></marker><marker id="am" viewBox="0 0 10 10" refX="8.5" refY="5" markerWidth="9" markerHeight="9" orient="auto-start-reverse"><path d="M0,0 L10,5 L0,10 z" fill="#b8650a"/></marker></defs>
<rect x="20" y="20" width="250" height="340" rx="12" fill="#fafafa" stroke="#ddd"/>
<text x="32" y="40" font-size="12" font-weight="700" fill="#888">Host</text>
<rect x="300" y="20" width="400" height="340" rx="12" fill="#fafafa" stroke="#ddd"/>
<text x="312" y="40" font-size="12" font-weight="700" fill="#888">OCI registry (127.0.0.1:5001, plain HTTP)</text>
<rect x="730" y="20" width="230" height="340" rx="12" fill="#fafafa" stroke="#ddd"/>
<text x="742" y="40" font-size="12" font-weight="700" fill="#888">Consumers</text>
<rect x="40" y="60" width="210" height="60" rx="9" fill="#ffffff" stroke="#111111" stroke-width="2"/>
<text x="145.0" y="88.0" font-size="13.5" font-weight="700" fill="#111111" text-anchor="middle">shipping-service-1.0.0.tgz</text>
<text x="145.0" y="105.0" font-size="11.5" fill="#555555" text-anchor="middle">helm package output</text>
<rect x="40" y="170" width="210" height="60" rx="9" fill="#fff8ef" stroke="#e8870c" stroke-width="2"/>
<text x="145.0" y="198.0" font-size="13.5" font-weight="700" fill="#111111" text-anchor="middle">helm registry login</text>
<text x="145.0" y="215.0" font-size="11.5" fill="#555555" text-anchor="middle">credentials in registry/config.json</text>
<rect x="40" y="280" width="210" height="60" rx="9" fill="#ffffff" stroke="#999999" stroke-width="1.5"/>
<text x="145.0" y="308.0" font-size="13.5" font-weight="700" fill="#111111" text-anchor="middle">minikube registry addon</text>
<text x="145.0" y="325.0" font-size="11.5" fill="#555555" text-anchor="middle">scripts/tunnel.sh -&gt; 127.0.0.1:5000</text>
<rect x="320" y="60" width="360" height="70" rx="9" fill="#ffffff" stroke="#111111" stroke-width="2"/>
<text x="500.0" y="93.0" font-size="13.5" font-weight="700" fill="#111111" text-anchor="middle">charts/shipping-service:1.0.0 (tag)</text>
<text x="500.0" y="110.0" font-size="11.5" fill="#555555" text-anchor="middle">manifest digest sha256:... (what you pin)</text>
<rect x="320" y="160" width="170" height="70" rx="9" fill="#eef4fb" stroke="#2f6db5" stroke-width="2"/>
<text x="405.0" y="193.0" font-size="13.5" font-weight="700" fill="#111111" text-anchor="middle">config layer</text>
<text x="405.0" y="210.0" font-size="11.5" fill="#555555" text-anchor="middle">helm.config.v1+json</text>
<rect x="510" y="160" width="170" height="70" rx="9" fill="#eef4fb" stroke="#2f6db5" stroke-width="2"/>
<text x="595.0" y="193.0" font-size="13.5" font-weight="700" fill="#111111" text-anchor="middle">chart layer</text>
<text x="595.0" y="210.0" font-size="11.5" fill="#555555" text-anchor="middle">helm.chart.content.v1 tgz</text>
<rect x="320" y="260" width="360" height="60" rx="9" fill="#ffffff" stroke="#999999" stroke-width="1.5" stroke-dasharray="6 4"/>
<text x="500.0" y="288.0" font-size="13.5" font-weight="700" fill="#111111" text-anchor="middle">optional .prov layer</text>
<text x="500.0" y="305.0" font-size="11.5" fill="#555555" text-anchor="middle">added when the .tgz was signed (chapter 21)</text>
<rect x="750" y="60" width="190" height="60" rx="9" fill="#ffffff" stroke="#111111" stroke-width="2"/>
<text x="845.0" y="88.0" font-size="13.5" font-weight="700" fill="#111111" text-anchor="middle">helm pull / show</text>
<text x="845.0" y="105.0" font-size="11.5" fill="#555555" text-anchor="middle">oci://.../shipping-service</text>
<rect x="750" y="160" width="190" height="60" rx="9" fill="#111111" stroke="#111111" stroke-width="2"/>
<text x="845.0" y="188.0" font-size="13.5" font-weight="700" fill="#ffffff" text-anchor="middle">helm install</text>
<text x="845.0" y="205.0" font-size="11.5" fill="#dddddd" text-anchor="middle">oci://...@sha256:...</text>
<rect x="750" y="260" width="190" height="60" rx="9" fill="#ffffff" stroke="#999999" stroke-width="1.5"/>
<text x="845.0" y="288.0" font-size="13.5" font-weight="700" fill="#111111" text-anchor="middle">helm dependency update</text>
<text x="845.0" y="305.0" font-size="11.5" fill="#555555" text-anchor="middle">repository: oci://...</text>
<path d="M250,90 L320,95" fill="none" stroke="#b8650a" stroke-width="2" marker-end="url(#am)"/>
<text x="291.0" y="84.5" font-size="11" fill="#ffffff" stroke="#ffffff" stroke-width="3" paint-order="stroke" text-anchor="middle">helm push</text>
<text x="291.0" y="84.5" font-size="11" fill="#b8650a" text-anchor="middle">helm push</text>
<path d="M250,200 L320,110" fill="none" stroke="#555" stroke-width="2" stroke-dasharray="5 4" marker-end="url(#a)"/>
<path d="M250,310 L320,120" fill="none" stroke="#555" stroke-width="2" stroke-dasharray="5 4" marker-end="url(#a)"/>
<path d="M500,130 L405,160" fill="none" stroke="#555" stroke-width="2" marker-end="url(#a)"/>
<path d="M600,130 L595,160" fill="none" stroke="#555" stroke-width="2" marker-end="url(#a)"/>
<path d="M680,95 L750,90" fill="none" stroke="#555" stroke-width="2" marker-end="url(#a)"/>
<path d="M680,110 L750,190" fill="none" stroke="#555" stroke-width="2" marker-end="url(#a)"/>
<path d="M680,120 L750,285" fill="none" stroke="#555" stroke-width="2" marker-end="url(#a)"/>
</svg>