<svg xmlns="http://www.w3.org/2000/svg" viewBox="0 0 1040 400" font-family="'Red Hat Text', system-ui, sans-serif" role="img">
<defs><marker id="a" viewBox="0 0 10 10" refX="8.5" refY="5" markerWidth="9" markerHeight="9" orient="auto-start-reverse"><path d="M0,0 L10,5 L0,10 z" fill="#555"/></marker><marker id="am" viewBox="0 0 10 10" refX="8.5" refY="5" markerWidth="9" markerHeight="9" orient="auto-start-reverse"><path d="M0,0 L10,5 L0,10 z" fill="#b8650a"/></marker></defs>
<rect x="20" y="20" width="1000" height="360" rx="12" fill="#fafafa" stroke="#ddd"/>
<text x="32" y="40" font-size="12" font-weight="700" fill="#888">Cluster helm4dev</text>
<rect x="40" y="60" width="230" height="84" rx="9" fill="#ffffff" stroke="#111111" stroke-width="2"/>
<text x="155.0" y="92.5" font-size="13.5" font-weight="700" fill="#111111" text-anchor="middle">Chart source</text>
<text x="155.0" y="109.5" font-size="11.5" fill="#555555" text-anchor="middle">OCI: registry addon (primary)</text>
<text x="155.0" y="124.5" font-size="11.5" fill="#555555" text-anchor="middle">Git: github.com/... (pending)</text>
<rect x="40" y="240" width="230" height="84" rx="9" fill="#f4f4f4" stroke="#888888" stroke-width="1.5"/>
<text x="155.0" y="272.5" font-size="13.5" font-weight="700" fill="#111111" text-anchor="middle">Operator (you)</text>
<text x="155.0" y="289.5" font-size="11.5" fill="#555555" text-anchor="middle">kubectl apply Application</text>
<text x="155.0" y="304.5" font-size="11.5" fill="#555555" text-anchor="middle">or merge a pins change</text>
<rect x="400" y="60" width="240" height="84" rx="9" fill="#fff8ef" stroke="#e8870c" stroke-width="2"/>
<text x="520.0" y="92.5" font-size="13.5" font-weight="700" fill="#111111" text-anchor="middle">argocd-repo-server</text>
<text x="520.0" y="109.5" font-size="11.5" fill="#555555" text-anchor="middle">helm template + valueFiles</text>
<text x="520.0" y="124.5" font-size="11.5" fill="#555555" text-anchor="middle">+ valuesObject; lookup is empty</text>
<rect x="400" y="240" width="240" height="84" rx="9" fill="#eef4fb" stroke="#2f6db5" stroke-width="2"/>
<text x="520.0" y="272.5" font-size="13.5" font-weight="700" fill="#111111" text-anchor="middle">argocd-application-controller</text>
<text x="520.0" y="289.5" font-size="11.5" fill="#555555" text-anchor="middle">diff desired vs live</text>
<text x="520.0" y="304.5" font-size="11.5" fill="#555555" text-anchor="middle">sync, prune, selfHeal</text>
<rect x="770" y="60" width="230" height="84" rx="9" fill="#ffffff" stroke="#111111" stroke-width="2"/>
<text x="885.0" y="92.5" font-size="13.5" font-weight="700" fill="#111111" text-anchor="middle">Sync phases</text>
<text x="885.0" y="109.5" font-size="11.5" fill="#555555" text-anchor="middle">PreSync, Sync, PostSync</text>
<text x="885.0" y="124.5" font-size="11.5" fill="#555555" text-anchor="middle">helm hooks map to these</text>
<rect x="770" y="240" width="230" height="84" rx="9" fill="#ffffff" stroke="#111111" stroke-width="2"/>
<text x="885.0" y="272.5" font-size="13.5" font-weight="700" fill="#111111" text-anchor="middle">Namespace hfd-25</text>
<text x="885.0" y="289.5" font-size="11.5" fill="#555555" text-anchor="middle">release platform</text>
<text x="885.0" y="304.5" font-size="11.5" fill="#555555" text-anchor="middle">umbrella workloads</text>
<path d="M270,102 L400,102" fill="none" stroke="#555" stroke-width="2" marker-end="url(#a)"/>
<text x="341.0" y="96.0" font-size="11" fill="#ffffff" stroke="#ffffff" stroke-width="3" paint-order="stroke" text-anchor="middle">fetch 1.0.0</text>
<text x="341.0" y="96.0" font-size="11" fill="#555" text-anchor="middle">fetch 1.0.0</text>
<path d="M520,144 L520,240" fill="none" stroke="#555" stroke-width="2" marker-end="url(#a)"/>
<text x="526.0" y="186.0" font-size="11" fill="#ffffff" stroke="#ffffff" stroke-width="3" paint-order="stroke" text-anchor="middle">manifests</text>
<text x="526.0" y="186.0" font-size="11" fill="#555" text-anchor="middle">manifests</text>
<path d="M640,102 L770,102" fill="none" stroke="#555" stroke-width="2" stroke-dasharray="5 4" marker-end="url(#a)"/>
<path d="M640,282 L770,282" fill="none" stroke="#b8650a" stroke-width="2" marker-end="url(#am)"/>
<text x="711.0" y="276.0" font-size="11" fill="#ffffff" stroke="#ffffff" stroke-width="3" paint-order="stroke" text-anchor="middle">apply (SSA)</text>
<text x="711.0" y="276.0" font-size="11" fill="#b8650a" text-anchor="middle">apply (SSA)</text>
<path d="M270,282 L400,282" fill="none" stroke="#555" stroke-width="2" marker-end="url(#a)"/>
<path d="M885,240 L885,144" fill="none" stroke="#555" stroke-width="2" stroke-dasharray="5 4" marker-end="url(#a)"/>
<text x="891.0" y="186.0" font-size="11" fill="#ffffff" stroke="#ffffff" stroke-width="3" paint-order="stroke" text-anchor="middle">hooks run in order</text>
<text x="891.0" y="186.0" font-size="11" fill="#555" text-anchor="middle">hooks run in order</text>
</svg>